<?xml version="1.0" encoding="UTF-8" standalone="no"?>
<!-- Created with Inkscape (http://www.inkscape.org/) -->

<svg
   xmlns:dc="http://purl.org/dc/elements/1.1/"
   xmlns:cc="http://creativecommons.org/ns#"
   xmlns:rdf="http://www.w3.org/1999/02/22-rdf-syntax-ns#"
   xmlns:svg="http://www.w3.org/2000/svg"
   xmlns="http://www.w3.org/2000/svg"
   xmlns:sodipodi="http://sodipodi.sourceforge.net/DTD/sodipodi-0.dtd"
   xmlns:inkscape="http://www.inkscape.org/namespaces/inkscape"
   width="400"
   height="400"
   viewBox="0 0 105.83333 105.83334"
   version="1.1"
   id="svg3719"
   inkscape:version="0.92.5 (2060ec1f9f, 2020-04-08)"
   sodipodi:docname="Forest3.svg">
  <defs
     id="defs3713" />
  <sodipodi:namedview
     id="base"
     pagecolor="#ffffff"
     bordercolor="#666666"
     borderopacity="1.0"
     inkscape:pageopacity="0.0"
     inkscape:pageshadow="2"
     inkscape:zoom="0.70710678"
     inkscape:cx="-73.422374"
     inkscape:cy="60.740141"
     inkscape:document-units="px"
     inkscape:current-layer="layer2"
     showgrid="false"
     units="px"
     inkscape:lockguides="false"
     showguides="true"
     inkscape:guide-bbox="true"
     inkscape:window-width="1920"
     inkscape:window-height="1017"
     inkscape:window-x="-8"
     inkscape:window-y="-8"
     inkscape:window-maximized="1"
     inkscape:snap-bbox="true"
     inkscape:snap-global="true"
     inkscape:bbox-paths="true" />
  <metadata
     id="metadata3716">
    <rdf:RDF>
      <cc:Work
         rdf:about="">
        <dc:format>image/svg+xml</dc:format>
        <dc:type
           rdf:resource="http://purl.org/dc/dcmitype/StillImage" />
        <dc:title />
      </cc:Work>
    </rdf:RDF>
  </metadata>
  <g
     inkscape:groupmode="layer"
     id="layer2"
     inkscape:label="Layer 2">
    <path
       transform="translate(0,-191.16664)"
       style="fill:#008000;stroke-width:1.52610528;stroke-miterlimit:4;stroke-dasharray:none"
       d="m 51.36068,253.49366 v -2.10571 l -4.053236,-0.0376 -4.053235,-0.0376 3.307529,-4.40469 c 1.81914,-2.42257 3.307528,-4.42923 3.307528,-4.45924 0,-0.0301 -1.421346,-0.0718 -3.158546,-0.0927 l -3.158544,-0.0382 4.010269,-4.53634 c 2.205646,-2.49498 4.037447,-4.51328 4.07067,-4.4851 0.03322,0.0282 1.845131,2.06953 4.026456,4.53633 l 3.966047,4.48511 -3.138194,0.0382 c -1.726004,0.021 -3.138189,0.0669 -3.138189,0.10201 0,0.0351 1.485598,2.04178 3.301326,4.45925 l 3.301326,4.39541 -4.047032,0.0376 -4.047035,0.0376 v 2.10571 c 0,1.77804 -0.03868,2.10571 -0.248569,2.10571 -0.209891,0 -0.248571,-0.32767 -0.248571,-2.10571 z"
       id="path898"
       inkscape:connector-curvature="0" />
    <path
       style="fill:#008000;stroke-width:1.52610528;stroke-miterlimit:4;stroke-dasharray:none"
       d="m 24.894427,88.950702 v -2.105711 l -4.053236,-0.0376 -4.053235,-0.0376 3.307529,-4.40469 c 1.81914,-2.42257 3.307528,-4.429231 3.307528,-4.459241 0,-0.0301 -1.421346,-0.0718 -3.158546,-0.0927 l -3.158544,-0.0382 4.010269,-4.53634 c 2.205646,-2.49498 4.037447,-4.51328 4.07067,-4.4851 0.03322,0.0282 1.845131,2.06953 4.026456,4.53633 l 3.966047,4.48511 -3.138194,0.0382 c -1.726004,0.021 -3.138189,0.0669 -3.138189,0.10201 0,0.0351 1.485598,2.041781 3.301326,4.459251 l 3.301326,4.39541 -4.047032,0.0376 -4.047035,0.0376 v 2.10571 c 0,1.77804 -0.03868,2.105711 -0.248569,2.105711 -0.209891,0 -0.248571,-0.327671 -0.248571,-2.105711 z"
       id="path898-9"
       inkscape:connector-curvature="0" />
    <path
       style="fill:#008000;stroke-width:1.52610528;stroke-miterlimit:4;stroke-dasharray:none"
       d="m 77.819,88.896718 v -2.105711 l -4.053236,-0.0376 -4.053235,-0.0376 3.307529,-4.40469 c 1.81914,-2.42257 3.307528,-4.429231 3.307528,-4.459241 0,-0.0301 -1.421346,-0.0718 -3.158546,-0.0927 l -3.158544,-0.0382 4.010269,-4.53634 c 2.205646,-2.49498 4.037447,-4.51328 4.07067,-4.4851 0.03322,0.0282 1.845131,2.06953 4.026456,4.53633 l 3.966047,4.48511 -3.138194,0.0382 c -1.726004,0.021 -3.138189,0.0669 -3.138189,0.10201 0,0.0351 1.485598,2.04178 3.301326,4.459251 l 3.301326,4.39541 -4.047032,0.0376 -4.047035,0.0376 v 2.105711 c 0,1.77804 -0.03868,2.105711 -0.248569,2.105711 -0.209891,0 -0.248571,-0.327671 -0.248571,-2.105711 z"
       id="path898-9-0"
       inkscape:connector-curvature="0" />
    <path
       style="fill:#008000;stroke-width:1.52610528;stroke-miterlimit:4;stroke-dasharray:none"
       d="m 77.793186,35.901217 v -2.105711 l -4.053236,-0.0376 -4.053235,-0.0376 3.307529,-4.40469 c 1.81914,-2.42257 3.307528,-4.429231 3.307528,-4.459241 0,-0.0301 -1.421346,-0.0718 -3.158546,-0.0927 l -3.158544,-0.0382 4.010269,-4.536339 c 2.205646,-2.49498 4.037447,-4.51328 4.07067,-4.4851 0.03322,0.0282 1.845131,2.06953 4.026456,4.53633 l 3.966047,4.485109 -3.138194,0.0382 c -1.726004,0.021 -3.138189,0.0669 -3.138189,0.102011 0,0.0351 1.485598,2.04178 3.301326,4.459251 l 3.301326,4.39541 -4.047032,0.0376 -4.047035,0.0376 v 2.105712 c 0,1.77804 -0.03868,2.10571 -0.248569,2.10571 -0.209891,0 -0.248571,-0.32767 -0.248571,-2.10571 z"
       id="path898-9-0-1"
       inkscape:connector-curvature="0" />
    <path
       style="fill:#008000;stroke-width:1.52610528;stroke-miterlimit:4;stroke-dasharray:none"
       d="m 24.928927,35.942031 v -2.105712 l -4.053236,-0.0376 -4.053235,-0.0376 3.307529,-4.40469 c 1.81914,-2.42257 3.307528,-4.429232 3.307528,-4.459242 0,-0.0301 -1.421346,-0.0718 -3.158546,-0.0927 l -3.158544,-0.0382 4.010269,-4.536339 c 2.205646,-2.49498 4.037447,-4.51328 4.07067,-4.4851 0.03322,0.0282 1.845131,2.06953 4.026456,4.53633 l 3.966047,4.485109 -3.138194,0.0382 c -1.726004,0.021 -3.138189,0.0669 -3.138189,0.102011 0,0.0351 1.485598,2.041781 3.301326,4.459252 l 3.301326,4.39541 -4.047032,0.0376 -4.047035,0.0376 v 2.105713 c 0,1.77804 -0.03868,2.105709 -0.248569,2.105709 -0.209891,0 -0.248571,-0.327669 -0.248571,-2.105709 z"
       id="path898-9-0-1-2"
       inkscape:connector-curvature="0" />
  </g>
  <g
     inkscape:label="Layer 1"
     inkscape:groupmode="layer"
     id="layer1"
     transform="translate(0,-191.16664)">
    <path
       style="opacity:1;fill:none;stroke:#000000;stroke-width:2.64583325;stroke-linecap:butt;stroke-linejoin:miter;stroke-miterlimit:4;stroke-dasharray:none;stroke-opacity:1"
       d="m 53.142096,252.12928 h 7.720543 l -5.404381,-8.49259 h 5.404381 l -9.264653,-12.35287 -9.264652,12.35287 h 5.404382 l -5.404382,8.49259 h 7.720543 v 3.86028 h 3.088219 v -3.86028 h 7.720543"
       id="path3725-7"
       inkscape:connector-curvature="0"
       sodipodi:nodetypes="ccccccccccccc" />
    <path
       style="opacity:1;fill:none;stroke:#000000;stroke-width:2.64583349;stroke-linecap:butt;stroke-linejoin:miter;stroke-miterlimit:4;stroke-dasharray:none;stroke-opacity:1"
       d="m 79.60043,225.67094 h 7.720543 l -5.404381,-8.49259 h 5.404381 l -9.264653,-12.35287 -9.264652,12.35287 h 5.404382 l -5.404382,8.49259 h 7.720543 v 3.86028 h 3.088219 v -3.86028 h 7.720543"
       id="path3725-7-3"
       inkscape:connector-curvature="0"
       sodipodi:nodetypes="ccccccccccccc" />
    <path
       style="opacity:1;fill:none;stroke:#000000;stroke-width:2.64583349;stroke-linecap:butt;stroke-linejoin:miter;stroke-miterlimit:4;stroke-dasharray:none;stroke-opacity:1"
       d="m 26.683762,278.58761 h 7.720543 l -5.404381,-8.49259 h 5.404381 L 25.139652,257.74215 15.875,270.09502 h 5.404382 L 15.875,278.58761 h 7.720543 v 3.86028 h 3.088219 v -3.86028 h 7.720543"
       id="path3725-7-3-7"
       inkscape:connector-curvature="0"
       sodipodi:nodetypes="ccccccccccccc" />
    <path
       style="opacity:1;fill:none;stroke:#000000;stroke-width:2.64583349;stroke-linecap:butt;stroke-linejoin:miter;stroke-miterlimit:4;stroke-dasharray:none;stroke-opacity:1"
       d="m 79.60043,278.58761 h 7.720543 l -5.404381,-8.49259 h 5.404381 l -9.264653,-12.35287 -9.264652,12.35287 h 5.404382 l -5.404382,8.49259 h 7.720543 v 3.86028 h 3.088219 v -3.86028 h 7.720543"
       id="path3725-7-3-7-3"
       inkscape:connector-curvature="0"
       sodipodi:nodetypes="ccccccccccccc" />
    <path
       style="fill:#008000;stroke-width:5;stroke-miterlimit:4;stroke-dasharray:none"
       d=""
       id="path904"
       inkscape:connector-curvature="0"
       transform="matrix(0.26458334,0,0,0.26458334,0,191.16664)" />
    <path
       style="opacity:1;fill:none;stroke:#000000;stroke-width:2.64583349;stroke-linecap:butt;stroke-linejoin:miter;stroke-miterlimit:4;stroke-dasharray:none;stroke-opacity:1"
       d="m 26.683762,225.67094 h 7.720543 l -5.404381,-8.49259 h 5.404381 L 25.139652,204.82548 15.875,217.17835 h 5.404383 L 15.875,225.67094 h 7.720543 v 3.86028 h 3.088219 v -3.86028 h 7.720543"
       id="path3725-7-3-9"
       inkscape:connector-curvature="0"
       sodipodi:nodetypes="ccccccccccccc" />
  </g>
</svg>
