<?xml version="1.0" encoding="UTF-8" standalone="no"?>
<!-- Created with Inkscape (http://www.inkscape.org/) -->

<svg
   xmlns:dc="http://purl.org/dc/elements/1.1/"
   xmlns:cc="http://creativecommons.org/ns#"
   xmlns:rdf="http://www.w3.org/1999/02/22-rdf-syntax-ns#"
   xmlns:svg="http://www.w3.org/2000/svg"
   xmlns="http://www.w3.org/2000/svg"
   xmlns:sodipodi="http://sodipodi.sourceforge.net/DTD/sodipodi-0.dtd"
   xmlns:inkscape="http://www.inkscape.org/namespaces/inkscape"
   width="400"
   height="400"
   viewBox="0 0 105.83333 105.83334"
   version="1.1"
   id="svg3719"
   inkscape:version="0.92.5 (2060ec1f9f, 2020-04-08)"
   sodipodi:docname="Forest1.svg">
  <defs
     id="defs3713" />
  <sodipodi:namedview
     id="base"
     pagecolor="#ffffff"
     bordercolor="#666666"
     borderopacity="1.0"
     inkscape:pageopacity="0.0"
     inkscape:pageshadow="2"
     inkscape:zoom="1.4142136"
     inkscape:cx="226.83988"
     inkscape:cy="214.02028"
     inkscape:document-units="px"
     inkscape:current-layer="layer2"
     showgrid="false"
     units="px"
     inkscape:lockguides="false"
     showguides="true"
     inkscape:guide-bbox="true"
     inkscape:window-width="1920"
     inkscape:window-height="1017"
     inkscape:window-x="-8"
     inkscape:window-y="-8"
     inkscape:window-maximized="1"
     inkscape:snap-bbox="false"
     inkscape:snap-global="true" />
  <metadata
     id="metadata3716">
    <rdf:RDF>
      <cc:Work
         rdf:about="">
        <dc:format>image/svg+xml</dc:format>
        <dc:type
           rdf:resource="http://purl.org/dc/dcmitype/StillImage" />
        <dc:title></dc:title>
      </cc:Work>
    </rdf:RDF>
  </metadata>
  <g
     inkscape:groupmode="layer"
     id="layer2"
     inkscape:label="Layer 2">
    <path
       style="opacity:1;fill:none;stroke-width:5.65685415;stroke-miterlimit:4;stroke-dasharray:none"
       d="m 184.41347,346.56857 v -25.09738 l -48.05039,-0.18168 -48.05039,-0.18169 34.64695,-54.44722 34.64696,-54.44722 -34.37148,-0.35355 -34.371478,-0.35356 55.597768,-74.12675 55.59776,-74.126759 55.46321,73.947729 c 30.50476,40.67126 55.4632,74.10482 55.4632,74.29681 0,0.19199 -15.42509,0.43165 -34.27799,0.53258 l -34.27799,0.1835 34.66991,54.44722 34.6699,54.44722 -48.12162,0.18169 -48.12162,0.18168 v 25.09738 25.09739 h -15.55635 -15.55635 z"
       id="path4596"
       inkscape:connector-curvature="0"
       transform="scale(0.26458334)" />
    <path
       style="opacity:1;fill:none;stroke-width:5.65685415;stroke-miterlimit:4;stroke-dasharray:none"
       d="m 184.41347,346.56857 v -25.09738 l -48.05039,-0.18168 -48.05039,-0.18169 34.64695,-54.44722 34.64696,-54.44722 -34.37148,-0.35355 -34.371478,-0.35356 55.597768,-74.12675 55.59776,-74.126759 55.46321,73.947729 c 30.50476,40.67126 55.4632,74.10482 55.4632,74.29681 0,0.19199 -15.42509,0.43165 -34.27799,0.53258 l -34.27799,0.1835 34.66991,54.44722 34.6699,54.44722 -48.12162,0.18169 -48.12162,0.18168 v 25.09738 25.09739 h -15.55635 -15.55635 z"
       id="path4598"
       inkscape:connector-curvature="0"
       transform="scale(0.26458334)" />
    <path
       style="opacity:1;fill:none;stroke-width:5.65685415;stroke-miterlimit:4;stroke-dasharray:none"
       d="m 26.457151,280.97951 c 0.285485,-0.48613 15.750832,-24.83864 34.367438,-54.11669 18.616605,-29.27805 34.027554,-53.69975 34.246552,-54.27044 0.346646,-0.90335 -4.050297,-1.03764 -33.972881,-1.03764 H 26.727202 L 82.344839,97.397268 137.96247,23.239796 158.05091,50.101217 c 11.04863,14.77378 19.92896,27.276975 19.73406,27.784877 -0.1949,0.507901 -24.07996,32.556966 -53.07792,71.220156 -28.997956,38.66318 -52.72356,70.50571 -52.72356,70.76118 0,0.25546 15.723874,0.54699 34.94194,0.64785 l 34.94194,0.18338 -19.46572,30.58237 -19.46572,30.58237 H 64.437009 c -30.604568,0 -38.392486,-0.18125 -37.979858,-0.88389 z"
       id="path4600"
       inkscape:connector-curvature="0"
       transform="scale(0.26458334)" />
  </g>
  <g
     inkscape:label="Layer 1"
     inkscape:groupmode="layer"
     id="layer1"
     transform="translate(0,-191.16664)">
    <path
       style="opacity:1;fill:none;stroke:#000000;stroke-width:2.11666679;stroke-linecap:butt;stroke-linejoin:miter;stroke-miterlimit:4;stroke-dasharray:none;stroke-opacity:1"
       d="M 58.208334,277.4208 H 84.666668 L 66.145834,248.31663 h 18.520834 l -31.750001,-42.33333 -31.75,42.33333 H 39.687501 L 21.166667,277.4208 h 26.458334 v 13.22917 H 58.208334 V 277.4208 h 26.458334"
       id="path3725"
       inkscape:connector-curvature="0"
       sodipodi:nodetypes="ccccccccccccc" />
    <path
       style="opacity:1;fill:none;stroke:#000000;stroke-width:2.11666679;stroke-linecap:butt;stroke-linejoin:miter;stroke-miterlimit:4;stroke-dasharray:none;stroke-opacity:1"
       d="M 48.683336,211.67185 36.5125,195.39997 4.7625003,237.7333 H 23.283334 L 4.7625003,266.83747 H 27.847396 m 3.373437,10.64948 v 2.57969 h 10.583334 v -2.8112"
       id="path3725-8"
       inkscape:connector-curvature="0"
       sodipodi:nodetypes="cccccccccc" />
    <path
       style="opacity:1;fill:none;stroke:#000000;stroke-width:2.11666679;stroke-linecap:butt;stroke-linejoin:miter;stroke-miterlimit:4;stroke-dasharray:none;stroke-opacity:1"
       d="M 56.409994,211.67185 68.58083,195.39997 100.33082,237.7333 H 81.809996 l 18.520824,29.10417 H 77.245934 m -3.373437,10.64948 v 2.57969 H 63.289163 v -2.8112"
       id="path3725-8-2"
       inkscape:connector-curvature="0"
       sodipodi:nodetypes="cccccccccc" />
  </g>
</svg>
